# xmcd
#
# Track frame offsets:
#	150
#	28508
#	48176
#	61887
#	79298
#	95726
#
# Disc length: 1525 seconds
#
# Revision: 1
# Processed by: cddbd v1.5.2PL0 Copyright (c) Steve Scherf et al.
# Submitted via: CDmax 2.0
#
DISCID=4505f306
DTITLE=Nusense - Lost in the Land
DYEAR=2002
DGENRE=Blues
TTITLE0=Lost in the Land
TTITLE1=Lost in the Land (Radio fo Twenty)
TTITLE2=Lost in the Land (Radio Short)
TTITLE3=SikSense
TTITLE4=SikSense (Radio)
TTITLE5=Gamez Been Using You (Featuring Sic Flow, LSD)
EXTD=
EXTT0=
EXTT1=
EXTT2=
EXTT3=
EXTT4=
EXTT5=
PLAYORDER=
